<svg width="20" height="20" viewBox="0 0 20 20" fill="none" xmlns="http://www.w3.org/2000/svg">
<path d="M10 0C4.47581 0 0 4.47581 0 10C0 15.5242 4.47581 20 10 20C15.5242 20 20 15.5242 20 10C20 4.47581 15.5242 0 10 0ZM10 18.0645C5.55242 18.0645 1.93548 14.4476 1.93548 10C1.93548 5.55242 5.55242 1.93548 10 1.93548C14.4476 1.93548 18.0645 5.55242 18.0645 10C18.0645 14.4476 14.4476 18.0645 10 18.0645ZM14.75 12.1613C14.3387 11.8185 13.7298 11.875 13.3871 12.2863C12.5484 13.2944 11.3105 13.875 10 13.875C8.68952 13.875 7.45161 13.2984 6.6129 12.2863C6.27016 11.875 5.65726 11.8226 5.25 12.1613C4.83871 12.504 4.78629 13.1129 5.125 13.5242C6.33468 14.9758 8.1129 15.8065 10 15.8065C11.8871 15.8065 13.6653 14.9758 14.875 13.5242C15.2177 13.1129 15.1613 12.504 14.75 12.1613ZM6.77419 9.35484C7.4879 9.35484 8.06452 8.77823 8.06452 8.06452C8.06452 7.35081 7.4879 6.77419 6.77419 6.77419C6.06048 6.77419 5.48387 7.35081 5.48387 8.06452C5.48387 8.77823 6.06048 9.35484 6.77419 9.35484ZM13.2258 6.93548C12.1895 6.93548 10.9718 7.61694 10.8105 8.63306C10.7419 9.08468 11.2742 9.36693 11.6089 9.06855L11.9919 8.72581C12.5887 8.19355 13.8548 8.19355 14.4516 8.72581L14.8347 9.06855C15.1774 9.36693 15.7056 9.08065 15.6331 8.63306C15.4798 7.61694 14.2621 6.93548 13.2258 6.93548Z" fill="white"/>
</svg>
